<svg width="212" height="60" viewBox="0 0 212 60" fill="none" xmlns="http://www.w3.org/2000/svg">
<rect width="212" height="60" rx="10" fill="#006EFF" fill-opacity="0.07"/>
<rect x="16" y="12" width="36" height="36" rx="10" fill="#006EFF" fill-opacity="0.22"/>
<path d="M36 36C40.4183 36 44 32.4183 44 28C44 23.5817 40.4183 20 36 20C31.5817 20 28 23.5817 28 28C28 32.4183 31.5817 36 36 36Z" stroke="#006EFF" stroke-width="2" stroke-linecap="round"/>
<path d="M35.1669 38.9689C34.063 39.6239 32.7742 40 31.3975 40C27.312 40 24 36.688 24 32.6025C24 31.2258 24.3761 29.937 25.0311 28.8331" stroke="#006EFF" stroke-width="2" stroke-linecap="round"/>
<path d="M66.688 28V20.872H64.108V19.252H71.188V20.872H68.548V28H66.688ZM73.6938 28.108C73.0538 28.108 72.4898 27.976 72.0018 27.712C71.5138 27.448 71.1338 27.068 70.8618 26.572C70.5978 26.076 70.4658 25.48 70.4658 24.784C70.4658 24.12 70.5938 23.54 70.8498 23.044C71.1058 22.54 71.4738 22.148 71.9538 21.868C72.4338 21.588 73.0138 21.448 73.6938 21.448C74.3338 21.448 74.8938 21.58 75.3738 21.844C75.8618 22.108 76.2378 22.492 76.5018 22.996C76.7738 23.492 76.9098 24.088 76.9098 24.784C76.9098 25.448 76.7818 26.032 76.5258 26.536C76.2698 27.032 75.9018 27.42 75.4218 27.7C74.9498 27.972 74.3738 28.108 73.6938 28.108ZM73.6818 26.68C74.1138 26.68 74.4618 26.524 74.7258 26.212C74.9898 25.9 75.1218 25.424 75.1218 24.784C75.1218 24.144 74.9938 23.668 74.7378 23.356C74.4818 23.044 74.1338 22.888 73.6938 22.888C73.2538 22.888 72.9018 23.044 72.6378 23.356C72.3738 23.668 72.2418 24.144 72.2418 24.784C72.2418 25.416 72.3698 25.892 72.6258 26.212C72.8898 26.524 73.2418 26.68 73.6818 26.68ZM78.0333 28V19.252H79.8213V24.232L80.3493 23.62L82.2573 21.568H84.4293L81.9573 24.112L84.4773 28H82.4013L81.0933 25.96L80.7093 25.288L79.8213 26.164V28H78.0333ZM87.7088 28.108C87.0368 28.108 86.4608 27.972 85.9808 27.7C85.5088 27.428 85.1448 27.048 84.8888 26.56C84.6328 26.064 84.5048 25.488 84.5048 24.832C84.5048 24.136 84.6328 23.536 84.8888 23.032C85.1528 22.528 85.5208 22.14 85.9928 21.868C86.4648 21.588 87.0168 21.448 87.6488 21.448C88.3928 21.448 89.0048 21.612 89.4848 21.94C89.9648 22.26 90.3088 22.704 90.5168 23.272C90.7248 23.832 90.7928 24.468 90.7208 25.18H86.2448C86.2368 25.692 86.3688 26.088 86.6408 26.368C86.9128 26.64 87.2688 26.776 87.7088 26.776C88.0448 26.776 88.3288 26.704 88.5608 26.56C88.8008 26.408 88.9528 26.208 89.0168 25.96H90.6848C90.6288 26.392 90.4648 26.768 90.1928 27.088C89.9288 27.408 89.5848 27.66 89.1608 27.844C88.7368 28.02 88.2528 28.108 87.7088 28.108ZM87.6488 22.78C87.2488 22.78 86.9248 22.896 86.6768 23.128C86.4288 23.352 86.2888 23.66 86.2568 24.052H88.9928C88.9688 23.62 88.8288 23.3 88.5728 23.092C88.3248 22.884 88.0168 22.78 87.6488 22.78ZM91.8732 28V21.568H93.5652L93.6372 22.732H93.7092C93.8852 22.308 94.1572 21.988 94.5252 21.772C94.8932 21.556 95.3052 21.448 95.7612 21.448C96.1932 21.448 96.5772 21.536 96.9132 21.712C97.2572 21.888 97.5292 22.172 97.7292 22.564C97.9292 22.948 98.0292 23.464 98.0292 24.112V28H96.2652V24.496C96.2652 23.952 96.1692 23.548 95.9772 23.284C95.7852 23.02 95.4772 22.888 95.0532 22.888C94.5972 22.888 94.2452 23.044 93.9972 23.356C93.7572 23.66 93.6372 24.016 93.6372 24.424V28H91.8732ZM101.663 28.108C100.895 28.108 100.275 27.832 99.8027 27.28C99.3307 26.72 99.0947 25.888 99.0947 24.784C99.0947 23.672 99.3307 22.84 99.8027 22.288C100.275 21.728 100.895 21.448 101.663 21.448C102.159 21.448 102.583 21.56 102.935 21.784C103.295 22.008 103.551 22.308 103.703 22.684H103.799L103.871 21.568H105.563V28H103.799V26.872H103.703C103.551 27.24 103.295 27.54 102.935 27.772C102.583 27.996 102.159 28.108 101.663 28.108ZM102.335 26.68C102.663 26.68 102.931 26.604 103.139 26.452C103.355 26.3 103.515 26.104 103.619 25.864C103.723 25.616 103.775 25.356 103.775 25.084V24.472C103.775 24.192 103.723 23.932 103.619 23.692C103.515 23.452 103.355 23.256 103.139 23.104C102.931 22.952 102.663 22.876 102.335 22.876C101.903 22.876 101.555 23.032 101.291 23.344C101.027 23.648 100.895 24.128 100.895 24.784C100.895 25.432 101.027 25.912 101.291 26.224C101.555 26.528 101.903 26.68 102.335 26.68Z" fill="#0065EA"/>
<path d="M64.88 41V33.71H69.97V34.65H65.97V36.99H69.57V37.89H65.97V41H64.88ZM70.9798 34.9V33.71H72.0098V34.9H70.9798ZM70.9798 41V35.71H72.0098V41H70.9798ZM73.4407 41V35.71H74.4207L74.4607 36.76H74.5207C74.674 36.3867 74.914 36.1067 75.2407 35.92C75.5674 35.7267 75.924 35.63 76.3107 35.63C76.6707 35.63 76.994 35.7033 77.2807 35.85C77.5674 35.9967 77.7907 36.2333 77.9507 36.56C78.1174 36.8867 78.2007 37.32 78.2007 37.86V41H77.1707V38.07C77.1707 37.53 77.0707 37.13 76.8707 36.87C76.6707 36.61 76.3607 36.48 75.9407 36.48C75.6407 36.48 75.3774 36.5533 75.1507 36.7C74.9307 36.8467 74.7607 37.0433 74.6407 37.29C74.5207 37.53 74.4607 37.8033 74.4607 38.11V41H73.4407ZM81.393 41.09C80.7464 41.09 80.223 40.8567 79.823 40.39C79.4297 39.9167 79.233 39.2367 79.233 38.35C79.233 37.4633 79.4297 36.7867 79.823 36.32C80.223 35.8533 80.7464 35.62 81.393 35.62C81.8397 35.62 82.2197 35.7233 82.533 35.93C82.8464 36.1367 83.0664 36.41 83.193 36.75H83.253L83.293 35.71H84.283V41H83.253V39.95H83.193C83.0664 40.29 82.8464 40.5667 82.533 40.78C82.2197 40.9867 81.8397 41.09 81.393 41.09ZM81.753 40.24C82.0797 40.24 82.353 40.1667 82.573 40.02C82.793 39.8667 82.9597 39.67 83.073 39.43C83.1864 39.1833 83.243 38.9233 83.243 38.65V38.05C83.243 37.7767 83.1864 37.52 83.073 37.28C82.9597 37.04 82.793 36.8433 82.573 36.69C82.353 36.5367 82.0797 36.46 81.753 36.46C81.313 36.46 80.9597 36.62 80.693 36.94C80.4264 37.2533 80.293 37.7233 80.293 38.35C80.293 38.97 80.4264 39.44 80.693 39.76C80.9597 40.08 81.313 40.24 81.753 40.24ZM85.7259 41V35.71H86.7059L86.7459 36.76H86.8059C86.9592 36.3867 87.1992 36.1067 87.5259 35.92C87.8525 35.7267 88.2092 35.63 88.5959 35.63C88.9559 35.63 89.2792 35.7033 89.5659 35.85C89.8525 35.9967 90.0759 36.2333 90.2359 36.56C90.4025 36.8867 90.4859 37.32 90.4859 37.86V41H89.4559V38.07C89.4559 37.53 89.3559 37.13 89.1559 36.87C88.9559 36.61 88.6459 36.48 88.2259 36.48C87.9259 36.48 87.6625 36.5533 87.4359 36.7C87.2159 36.8467 87.0459 37.0433 86.9259 37.29C86.8059 37.53 86.7459 37.8033 86.7459 38.11V41H85.7259ZM94.0882 41.09C93.5749 41.09 93.1249 40.9767 92.7382 40.75C92.3515 40.5233 92.0515 40.2067 91.8382 39.8C91.6249 39.3867 91.5182 38.9067 91.5182 38.36C91.5182 37.8133 91.6249 37.3367 91.8382 36.93C92.0515 36.5167 92.3549 36.1967 92.7482 35.97C93.1415 35.7433 93.6015 35.63 94.1282 35.63C94.5549 35.63 94.9349 35.71 95.2682 35.87C95.6082 36.03 95.8782 36.2533 96.0782 36.54C96.2849 36.8267 96.4015 37.16 96.4282 37.54H95.4282C95.3682 37.1933 95.2149 36.9333 94.9682 36.76C94.7282 36.58 94.4382 36.49 94.0982 36.49C93.6115 36.49 93.2349 36.6633 92.9682 37.01C92.7015 37.35 92.5682 37.8033 92.5682 38.37C92.5682 38.9633 92.7049 39.4233 92.9782 39.75C93.2582 40.07 93.6282 40.23 94.0882 40.23C94.4749 40.23 94.7882 40.1267 95.0282 39.92C95.2682 39.7133 95.4082 39.4433 95.4482 39.11H96.4482C96.4215 39.51 96.3049 39.86 96.0982 40.16C95.8915 40.4533 95.6149 40.6833 95.2682 40.85C94.9215 41.01 94.5282 41.09 94.0882 41.09ZM99.6934 41.09C99.1668 41.09 98.7101 40.9767 98.3234 40.75C97.9434 40.5233 97.6501 40.2067 97.4434 39.8C97.2368 39.3933 97.1334 38.92 97.1334 38.38C97.1334 37.82 97.2334 37.3367 97.4334 36.93C97.6401 36.5167 97.9334 36.1967 98.3134 35.97C98.6934 35.7433 99.1401 35.63 99.6534 35.63C100.233 35.63 100.71 35.76 101.083 36.02C101.463 36.2733 101.737 36.6233 101.903 37.07C102.07 37.51 102.127 38.0067 102.073 38.56H98.1534C98.1668 39.1067 98.3101 39.53 98.5834 39.83C98.8634 40.1233 99.2334 40.27 99.6934 40.27C100.047 40.27 100.347 40.19 100.593 40.03C100.84 39.8633 100.997 39.6433 101.063 39.37H102.043C101.997 39.7167 101.867 40.02 101.653 40.28C101.44 40.5333 101.163 40.7333 100.823 40.88C100.49 41.02 100.113 41.09 99.6934 41.09ZM99.6434 36.44C99.2301 36.44 98.8901 36.5633 98.6234 36.81C98.3634 37.0567 98.2134 37.3967 98.1734 37.83H101.063C101.05 37.3433 100.907 36.99 100.633 36.77C100.367 36.55 100.037 36.44 99.6434 36.44ZM107.223 41.09C106.576 41.09 106.053 40.8567 105.653 40.39C105.26 39.9167 105.063 39.2367 105.063 38.35C105.063 37.4633 105.26 36.7867 105.653 36.32C106.053 35.8533 106.576 35.62 107.223 35.62C107.67 35.62 108.05 35.7233 108.363 35.93C108.676 36.1367 108.896 36.41 109.023 36.75H109.083L109.123 35.71H110.113V41H109.083V39.95H109.023C108.896 40.29 108.676 40.5667 108.363 40.78C108.05 40.9867 107.67 41.09 107.223 41.09ZM107.583 40.24C107.91 40.24 108.183 40.1667 108.403 40.02C108.623 39.8667 108.79 39.67 108.903 39.43C109.016 39.1833 109.073 38.9233 109.073 38.65V38.05C109.073 37.7767 109.016 37.52 108.903 37.28C108.79 37.04 108.623 36.8433 108.403 36.69C108.183 36.5367 107.91 36.46 107.583 36.46C107.143 36.46 106.79 36.62 106.523 36.94C106.256 37.2533 106.123 37.7233 106.123 38.35C106.123 38.97 106.256 39.44 106.523 39.76C106.79 40.08 107.143 40.24 107.583 40.24ZM111.556 42.67V35.71H112.546L112.586 36.75H112.646C112.779 36.4167 113.003 36.1467 113.316 35.94C113.629 35.7267 114.006 35.62 114.446 35.62C115.093 35.62 115.613 35.8567 116.006 36.33C116.406 36.7967 116.606 37.4733 116.606 38.36C116.606 39.2467 116.406 39.9233 116.006 40.39C115.613 40.8567 115.093 41.09 114.446 41.09C114.006 41.09 113.629 40.9867 113.316 40.78C113.003 40.5733 112.779 40.3 112.646 39.96H112.586V42.67H111.556ZM114.086 40.24C114.526 40.24 114.879 40.0833 115.146 39.77C115.419 39.45 115.556 38.98 115.556 38.36C115.556 37.7333 115.419 37.2633 115.146 36.95C114.879 36.63 114.526 36.47 114.086 36.47C113.759 36.47 113.486 36.5467 113.266 36.7C113.046 36.8467 112.879 37.0433 112.766 37.29C112.653 37.53 112.596 37.7867 112.596 38.06V38.65C112.596 38.9233 112.653 39.1833 112.766 39.43C112.879 39.67 113.046 39.8667 113.266 40.02C113.486 40.1667 113.759 40.24 114.086 40.24ZM117.699 42.67V35.71H118.689L118.729 36.75H118.789C118.922 36.4167 119.145 36.1467 119.459 35.94C119.772 35.7267 120.149 35.62 120.589 35.62C121.235 35.62 121.755 35.8567 122.149 36.33C122.549 36.7967 122.749 37.4733 122.749 38.36C122.749 39.2467 122.549 39.9233 122.149 40.39C121.755 40.8567 121.235 41.09 120.589 41.09C120.149 41.09 119.772 40.9867 119.459 40.78C119.145 40.5733 118.922 40.3 118.789 39.96H118.729V42.67H117.699ZM120.229 40.24C120.669 40.24 121.022 40.0833 121.289 39.77C121.562 39.45 121.699 38.98 121.699 38.36C121.699 37.7333 121.562 37.2633 121.289 36.95C121.022 36.63 120.669 36.47 120.229 36.47C119.902 36.47 119.629 36.5467 119.409 36.7C119.189 36.8467 119.022 37.0433 118.909 37.29C118.795 37.53 118.739 37.7867 118.739 38.06V38.65C118.739 38.9233 118.795 39.1833 118.909 39.43C119.022 39.67 119.189 39.8667 119.409 40.02C119.629 40.1667 119.902 40.24 120.229 40.24Z" fill="#006EFF"/>
</svg>
